#!OML:ASF F:\VICON\USERDATA\INSTALL\Justin_Nancy\Justin_Nancy.ASF
:FULLY-SPECIFIED
:DEGREES
419
root 1.24466 18.3573 20.9094 5.53901 8.10978 -3.5004
lowerback 9.60249 1.48437 2.25935
upperback -1.07482 2.40642 2.42582
thorax -6.53753 1.14648 0.911144
lowerneck -18.6932 -6.59926 -10.8166
upperneck 14.5903 -8.02634 10.1358
head 8.47516 -3.4234 4.1374
rclavicle 3.91109e-014 -1.63003e-014
rhumerus -29.0953 -4.60891 -73.7781
rradius 74.0194
rwrist -11.3521
rhand -22.0461 11.4163
rfingers 7.12502
rthumb 4.36421 -18.5187
lclavicle 3.91109e-014 -1.63003e-014
lhumerus -40.8323 13.5812 67.0492
lradius 50.574
lwrist 9.29086
lhand -25.733 23.139
lfingers 7.12502
lthumb 0.803615 53.1172
rfemur -6.62243 4.94702 22.2949
rtibia 32.4185
rfoot 5.75042 -9.95981
rtoes 13.8025
lfemur -23.1429 -3.00626 -17.4134
ltibia 20.2708
lfoot 6.7149 2.00069
ltoes -18.7922
420
root 1.25295 18.2512 21.0128 5.4487 8.21405 -4.00614
lowerback 9.68302 1.62152 2.42512
upperback -1.03916 2.62089 2.57252
thorax -6.54633 1.24861 0.938107
lowerneck -18.0926 -6.641 -10.8223
upperneck 14.2853 -8.1233 10.1515
head 8.28036 -3.48781 4.13685
rclavicle 3.03147e-014 8.34896e-015
rhumerus -28.6302 -4.73111 -73.9424
rradius 72.8612
rwrist -11.5483
rhand -22.0595 11.4998
rfingers 7.12502
rthumb 4.35135 -18.4355
lclavicle 3.03147e-014 8.34896e-015
lhumerus -41.1989 13.7544 66.7713
lradius 50.6595
lwrist 9.50204
lhand -25.6592 22.3809
lfingers 7.12502
lthumb 0.874854 52.3589
rfemur -6.39259 5.05335 22.9598
rtibia 33.085
rfoot 4.40773 -10.1481
rtoes 14.2281
lfemur -23.5225 -2.47338 -16.9902
ltibia 20.9599
lfoot 6.27498 1.36158
ltoes -14.9574
421
root 1.27027 18.1514 21.1297 5.41836 8.41921 -4.23032
lowerback 9.4345 1.68799 2.41138
upperback -0.906304 2.69369 2.5997
thorax -6.26632 1.28886 0.972064
lowerneck -17.851 -6.65481 -10.7739
upperneck 14.212 -8.19532 10.2603
head 8.22537 -3.51647 4.15963
rclavicle 1.75924e-014 4.05521e-014
rhumerus -28.1471 -4.71574 -74.209
rradius 71.759
rwrist -11.9974
rhand -21.4476 11.3179
rfingers 7.12502
rthumb 4.94217 -18.6045
lclavicle 1.75924e-014 4.05521e-014
lhumerus -41.6097 13.7572 66.508
lradius 50.9407
lwrist 9.82962
lhand -25.9482 23.4997
lfingers 7.12502
lthumb 0.595807 53.4786
rfemur -6.02825 4.8239 23.2201
rtibia 33.7065
rfoot 3.07771 -9.95683
rtoes 13.9044
lfemur -23.9354 -1.78432 -16.9779
ltibia 22.0871
lfoot 4.43964 -0.601071
ltoes -11.4117
422
root 1.28714 18.0545 21.2424 5.31582 8.52844 -4.18962
lowerback 9.30581 1.78858 2.13281
upperback -0.713997 2.78025 2.55426
thorax -6.00074 1.34295 1.07425
lowerneck -17.8033 -6.69612 -10.8592
upperneck 14.2232 -8.27095 10.4406
head 8.24212 -3.54112 4.22562
rclavicle -4.37326e-015 -1.98785e-014
rhumerus -27.628 -4.64798 -74.4795
rradius 70.7121
rwrist -12.2014
rhand -20.7263 11.3005
rfingers 7.12502
rthumb 5.63857 -18.6045
lclavicle -4.37326e-015 -1.98785e-014
lhumerus -41.7132 13.8375 66.2866
lradius 50.8187
lwrist 10.1255
lhand -26.3219 24.6136
lfingers 7.12502
lthumb 0.234876 54.5933
rfemur -5.60785 4.77787 23.2184
rtibia 34.3708
rfoot 1.66785 -9.82365
rtoes 13.2556
lfemur -24.0533 -1.43737 -17.1459
ltibia 23.4311
lfoot 2.09556 -1.88623
ltoes -6.44447
423
root 1.30176 17.9554 21.345 5.16957 8.60701 -4.12497
lowerback 9.45816 1.88459 1.80887
upperback -0.576806 2.86978 2.51606
thorax -5.95645 1.39705 1.19993
lowerneck -17.4168 -6.80893 -11.0287
upperneck 13.9604 -8.44537 10.6692
head 8.12651 -3.62541 4.31132
rclavicle -1.83876e-014 -1.19271e-014
rhumerus -27.1775 -4.46554 -74.7991
rradius 69.6892
rwrist -12.1466
rhand -20.4019 10.9475
rfingers 7.12502
rthumb 5.95184 -18.9489
lclavicle -1.83876e-014 -1.19271e-014
lhumerus -41.8653 14.0041 66.0863
lradius 50.6477
lwrist 10.4327
lhand -26.0767 24.0136
lfingers 7.12502
lthumb 0.471661 53.9928
rfemur -5.23899 4.83021 23.2239
rtibia 35.1505
rfoot 0.064088 -9.99056
rtoes 13.5339
lfemur -24.0438 -1.22191 -17.3519
ltibia 24.8076
lfoot 0.0164703 -2.20457
ltoes 0.169105
424
root 1.31111 17.8494 21.4428 5.00144 8.79625 -3.98102
lowerback 9.7757 1.92854 1.42322
upperback -0.487359 2.88688 2.44594
thorax -6.05705 1.41546 1.33122
lowerneck -17.0651 -6.85257 -10.9754
upperneck 13.6263 -8.54115 10.7409
head 7.96719 -3.6751 4.3173
rclavicle 3.73218e-014 1.70955e-014
rhumerus -26.8112 -4.41638 -75.1557
rradius 68.8752
rwrist -12.7158
rhand -20.536 10.9678
rfingers 7.12502
rthumb 5.82232 -18.9322
lclavicle 3.73218e-014 1.70955e-014
lhumerus -42.0876 14.1406 65.8707
lradius 50.5522
lwrist 10.6072
lhand -25.7702 23.3265
lfingers 7.12502
lthumb 0.767679 53.3048
rfemur -4.89987 4.85023 23.17
rtibia 36.046
rfoot -2.02869 -10.4701
rtoes 15.8321
lfemur -24.1486 -0.973885 -17.7219
ltibia 26.1318
lfoot -2.02099 -2.3014
ltoes 1.25432
425
root 1.31396 17.7394 21.5326 4.90658 9.01352 -3.54629
lowerback 10.1743 1.95889 0.787791
upperback -0.489491 2.84922 2.24476
thorax -6.3044 1.41232 1.46985
lowerneck -16.6599 -6.86593 -11.0481
upperneck 13.4087 -8.62097 11.0403
head 7.85323 -3.70467 4.42608
rclavicle 6.75868e-015 -6.75868e-015
rhumerus -26.7887 -4.2982 -75.7472
rradius 67.6807
rwrist -12.0162
rhand -20.4463 11.9375
rfingers 7.12502
rthumb 5.90897 -17.9602
lclavicle 6.75868e-015 -6.75868e-015
lhumerus -42.433 14.2239 65.5614
lradius 50.4713
lwrist 10.7315
lhand -25.8105 24.043
lfingers 7.12502
lthumb 0.728758 54.0215
rfemur -4.67719 4.9303 22.8084
rtibia 37.0949
rfoot -2.48157 -10.331
rtoes 12.7469
lfemur -24.3829 -0.534576 -18.4798
ltibia 27.3336
lfoot -3.80147 -2.09625
ltoes 0.00376613
426
root 1.32926 17.6453 21.6291 4.88389 9.42351 -3.00536
lowerback 10.4913 1.90275 0.249719
upperback -0.61151 2.69857 1.97319
thorax -6.62076 1.35081 1.49934
lowerneck -16.1409 -6.9131 -11.0598
upperneck 13.5282 -8.76472 11.1388
head 7.82501 -3.78058 4.45268
rclavicle 2.47984e-014 1.07344e-014
rhumerus -27.0546 -4.15501 -76.3986
rradius 66.8105
rwrist -11.4956
rhand -20.2738 12.1954
rfingers 7.12502
rthumb 6.07552 -17.6975
lclavicle 2.47984e-014 1.07344e-014
lhumerus -43.1825 14.0852 65.1458
lradius 50.4369
lwrist 10.7104
lhand -25.5757 23.9731
lfingers 7.12502
lthumb 0.95556 53.9507
rfemur -4.45583 4.57602 22.2449
rtibia 38.3499
rfoot -4.40321 -10.5206
rtoes 14.7267
lfemur -24.5145 0.0588034 -19.5105
ltibia 28.3906
lfoot -5.47147 -1.739
ltoes -1.26431
427
root 1.34746 17.5547 21.7308 4.87348 9.89104 -2.36533
lowerback 10.6143 1.77329 -0.331005
upperback -0.569504 2.43384 1.69215
thorax -6.64991 1.23563 1.57071
lowerneck -15.9802 -6.93439 -11.0492
upperneck 13.7068 -8.83243 11.1605
head 7.86443 -3.81383 4.45369
rclavicle 2.83268e-015 2.78299e-015
rhumerus -26.9377 -3.89822 -77.1303
rradius 65.752
rwrist -10.8044
rhand -20.2328 12.3914
rfingers 7.12502
rthumb 6.11506 -17.5004
lclavicle 2.83268e-015 2.78299e-015
lhumerus -43.7082 14.0949 64.8042
lradius 50.31
lwrist 10.5336
lhand -25.3742 22.9009
lfingers 7.12502
lthumb 1.1502 52.8776
rfemur -4.2785 4.10326 21.5312
rtibia 39.6614
rfoot -5.86592 -10.424
rtoes 15.5514
lfemur -24.3421 0.354946 -20.5765
ltibia 29.4035
lfoot -7.13949 -1.24766
ltoes -4.7803
428
root 1.34903 17.4493 21.8117 4.86484 10.2394 -1.9567
lowerback 10.7837 1.69901 -0.75868
upperback -0.363505 2.26622 1.52116
thorax -6.53131 1.1633 1.65741
lowerneck -16.1669 -7.05989 -11.3846
upperneck 13.8644 -8.96575 11.4019
head 7.99357 -3.86573 4.56988
rclavicle -1.3418e-014 -2.04748e-014
rhumerus -26.3387 -3.90549 -77.7658
rradius 64.4523
rwrist -9.51034
rhand -19.9113 12.7288
rfingers 7.12502
rthumb 6.4254 -17.1538
lclavicle -1.3418e-014 -2.04748e-014
lhumerus -43.6914 14.1631 64.8816
lradius 50.2196
lwrist 10.6485
lhand -25.8229 23.6671
lfingers 7.12502
lthumb 0.716754 53.6457
rfemur -4.50305 4.0572 21.1988
rtibia 40.9039
rfoot -6.56176 -10.5108
rtoes 15.9966
lfemur -24.1401 0.404762 -21.186
ltibia 30.5332
lfoot -8.59525 -0.398645
ltoes -11.1972
429
root 1.35088 17.4039 21.8918 4.87284 10.4505 -1.70081
lowerback 11.1237 1.70122 -1.00689
upperback -0.247026 2.22323 1.34933
thorax -6.60088 1.1465 1.61645
lowerneck -16.5858 -7.22413 -11.6535
upperneck 14.2305 -9.15057 11.5822
head 8.23392 -3.93369 4.64452
rclavicle -3.27746e-014 -2.0276e-014
rhumerus -26.0782 -4.32758 -78.3097
rradius 63.4236
rwrist -7.68118
rhand -19.012 13.0448
rfingers 7.12502
rthumb 7.29354 -16.8095
lclavicle -3.27746e-014 -2.0276e-014
lhumerus -43.0655 15.0402 64.7079
lradius 48.899
lwrist 9.83772
lhand -26.065 24.9328
lfingers 7.12502
lthumb 0.482994 54.912
rfemur -4.90274 4.22251 21.0051
rtibia 41.9662
rfoot -7.03578 -10.5415
rtoes 17.2717
lfemur -24.5788 0.379472 -21.4625
ltibia 31.8254
lfoot -9.352 -0.302207
ltoes -11.879
430
root 1.36063 17.3983 21.9943 4.82463 10.7022 -1.48853
lowerback 11.4318 1.71398 -1.17931
upperback -0.274012 2.20282 1.16433
thorax -6.80199 1.13958 1.51398
lowerneck -16.6801 -7.30658 -11.6518
upperneck 14.5122 -9.27179 11.5372
head 8.35707 -3.98892 4.61205
rclavicle 2.44257e-014 1.35174e-014
rhumerus -26.4361 -4.903 -78.8997
rradius 62.5779
rwrist -5.99421
rhand -18.6855 13.2671
rfingers 7.12502
rthumb 7.60868 -16.576
lclavicle 2.44257e-014 1.35174e-014
lhumerus -41.7352 18.1863 63.5053
lradius 45.1077
lwrist 6.33607
lhand -25.4761 23.6278
lfingers 7.12502
lthumb 1.05171 53.605
rfemur -4.98495 4.24977 20.8222
rtibia 42.9103
rfoot -6.48474 -10.3406
rtoes 15.7699
lfemur -25.2886 0.447201 -21.6409
ltibia 33.2358
lfoot -9.80505 -1.04552
ltoes -8.03283
431
root 1.36258 17.3788 22.1012 4.72043 10.9456 -1.40131
lowerback 11.441 1.69897 -1.35471
upperback -0.176489 2.15237 1.0735
thorax -6.70454 1.11808 1.52695
lowerneck -16.3764 -7.3687 -11.7442
upperneck 14.5369 -9.38075 11.5921
head 8.3331 -4.05068 4.63672
rclavicle 1.50082e-014 1.07344e-014
rhumerus -26.7059 -5.3318 -79.5196
rradius 61.5796
rwrist -4.86851
rhand -18.1979 13.1482
rfingers 7.12502
rthumb 8.07933 -16.6774
lclavicle 1.50082e-014 1.07344e-014
lhumerus -41.4875 18.957 63.1722
lradius 43.5578
lwrist 5.15199
lhand -25.5957 23.3732
lfingers 7.12502
lthumb 0.936192 53.3509
rfemur -4.8042 4.36772 20.8524
rtibia 43.6866
rfoot -6.36146 -10.1604
rtoes 15.0331
lfemur -25.8776 0.677725 -21.6194
ltibia 34.6715
lfoot -10.2784 -1.92381
ltoes -3.69252
432
root 1.36369 17.3387 22.1872 4.58542 11.0788 -1.61806
lowerback 11.4963 1.70987 -1.1889
upperback -0.0483384 2.18696 1.0583
thorax -6.59386 1.12777 1.41187
lowerneck -16.3912 -7.47357 -11.7561
upperneck 14.6869 -9.51405 11.4867
head 8.39724 -4.1219 4.58378
rclavicle -2.36057e-015 -2.88238e-015
rhumerus -27.0342 -5.78574 -80.0982
rradius 60.623
rwrist -3.95766
rhand -17.682 13.0188
rfingers 7.12502
rthumb 8.57722 -16.787
lclavicle -2.36057e-015 -2.88238e-015
lhumerus -41.0317 20.1395 62.9027
lradius 41.87
lwrist 3.73158
lhand -25.9783 23.8915
lfingers 7.12502
lthumb 0.566724 53.8705
rfemur -4.85628 4.67295 21.2036
rtibia 44.4839
rfoot -6.59864 -10.1092
rtoes 17.7384
lfemur -26.2116 0.899684 -21.2126
ltibia 36.0162
lfoot -10.7851 -2.85033
ltoes 0.817815
433
root 1.37167 17.3217 22.2671 4.31223 11.1341 -2.03569
lowerback 11.8385 1.73713 -0.693659
upperback 0.000778893 2.28847 1.06112
thorax -6.71859 1.16079 1.10961
lowerneck -16.3472 -7.52432 -11.7926
upperneck 14.7334 -9.57449 11.4378
head 8.41166 -4.15806 4.56526
rclavicle -2.09966e-015 8.84592e-015
rhumerus -27.4398 -6.31203 -80.6334
rradius 59.4894
rwrist -3.25667
rhand -17.7089 13.0583
rfingers 7.12502
rthumb 8.55124 -16.7486
lclavicle -2.09966e-015 8.84592e-015
lhumerus -40.7497 21.5529 62.6121
lradius 40.4234
lwrist 2.1885
lhand -26.3519 25.712
lfingers 7.12502
lthumb 0.205853 55.6917
rfemur -4.9609 4.93215 21.7035
rtibia 45.2892
rfoot -6.3613 -9.90937
rtoes 18.3027
lfemur -26.4155 1.20402 -20.7248
ltibia 37.1862
lfoot -11.3003 -3.4358
ltoes 1.60913
